<svg width="282" height="181" viewBox="0 0 282 181" fill="none" xmlns="http://www.w3.org/2000/svg">
<g clip-path="url(#clip0_137_495)">
<path d="M0 0H282V181H0V0Z" fill="white"/>
<path d="M35 103.016V43.0674H69.8339L69.1392 52.6244H46.6361V69.9264H67.7498V79.4835H46.6361V103.041H35V103.016ZM103.353 104.059C87.2756 104.059 76.0861 93.4591 76.0861 73.0294C76.0861 52.5996 87.4741 42 103.452 42C119.43 42 130.644 52.5996 130.644 73.0294C130.644 93.4591 119.331 104.059 103.353 104.059ZM103.427 51.8549C93.9496 51.8549 88.3177 58.731 88.3177 73.0542C88.3177 87.2284 93.9744 94.2534 103.427 94.2534C112.731 94.2534 118.462 87.2036 118.462 73.0542C118.462 58.7062 112.731 51.8549 103.427 51.8549Z" fill="#009871"/>
<path d="M185.501 103.016H175.502L150.841 65.5575H150.667V103.016H139.031V43.0674H149.029L173.691 80.253H173.865V43.0674H185.501V103.016Z" fill="#80CDEC"/>
<path d="M233.335 103.016L228.125 86.8561H209.616L204.406 103.016H192.77L214.827 43.0674H223.932L245.914 103.016H233.335ZM219.019 58.0112H218.846L212.246 78.5154H225.619L219.019 58.0112Z" fill="#009871"/>
<path d="M35.124 134.592V122.18H41.9965L41.8973 123.471H36.7119V127.989H41.4755V129.279H36.7119V134.592H35.124ZM47.1323 134.815C45.0234 134.815 43.4107 133.375 43.4107 130.272C43.4107 127.145 45.2715 125.73 47.3556 125.73C49.4645 125.73 51.0771 127.145 51.0771 130.272C51.0771 133.375 49.1915 134.815 47.1323 134.815ZM47.2315 127.045C45.8918 127.045 44.8993 128.063 44.8993 130.272C44.8993 132.457 45.8669 133.499 47.2315 133.499C48.6209 133.499 49.5389 132.457 49.5389 130.272C49.5637 128.063 48.5961 127.045 47.2315 127.045ZM57.5279 127.269C57.4286 127.219 57.2053 127.095 56.7339 127.095C55.5926 127.095 54.9972 127.79 54.7491 128.311V134.592H53.2853V125.953H54.625V127.219H54.6498C54.9228 126.598 55.4934 125.779 56.8332 125.779C57.1805 125.779 57.4038 125.829 57.6271 125.903L57.5279 127.269ZM63.6312 127.765C63.3335 127.517 62.6884 127.02 61.7208 127.02C60.778 127.02 60.3314 127.418 60.3314 127.914C60.3314 128.584 60.7284 128.907 61.6464 129.379L62.2915 129.701C63.6312 130.396 64.3755 131.116 64.3755 132.382C64.3755 133.698 63.4079 134.84 61.299 134.84C59.86 134.84 59.1157 134.269 58.7188 133.921L59.2646 132.631C59.6367 133.003 60.2818 133.524 61.3239 133.524C62.4155 133.524 62.9862 133.102 62.9862 132.556C62.9862 131.737 62.4403 131.414 61.4727 130.893L60.8276 130.545C59.5871 129.875 58.9669 129.155 58.9669 127.964C58.9669 126.673 60.1081 125.73 61.7456 125.73C63.135 125.73 63.8049 126.301 64.1026 126.549L63.6312 127.765ZM72.042 127.641C71.5353 127.235 70.9046 127.016 70.2556 127.02C68.6926 127.02 67.5513 127.914 67.5513 130.148C67.5513 132.631 68.5933 133.524 70.1316 133.524C71.0495 133.524 71.6202 133.177 71.9179 132.953L72.3397 134.045C72.0172 134.343 71.3225 134.815 69.8586 134.815C67.6009 134.815 66.0378 133.475 66.0378 130.198C66.0378 127.045 68.1963 125.73 70.206 125.73C71.5209 125.73 72.1412 126.226 72.5134 126.474L72.042 127.641ZM79.8573 134.592V129.478C79.8573 127.815 79.3611 127.02 78.1205 127.02C76.9544 127.02 76.2597 127.591 75.8628 127.964V134.592H74.399V121.882L75.8628 121.708V126.847H75.8876C76.3094 126.425 77.1281 125.754 78.4679 125.754C80.3038 125.754 81.2963 126.896 81.2963 129.255V134.592H79.8573ZM90.625 134.592H89.2852V133.624H89.2604C88.9875 133.946 88.2928 134.815 86.6057 134.815C84.8193 134.815 83.8517 133.723 83.8517 131.315V125.978H85.3156V131.091C85.3156 132.804 85.8118 133.549 86.9779 133.549C88.1936 133.549 88.8386 132.953 89.186 132.606V125.978H90.6498V134.592H90.625ZM98.7628 134.592V129.478C98.7628 127.815 98.2666 127.02 97.0261 127.02C95.86 127.02 95.1653 127.591 94.7683 127.964V134.592H93.3045V125.953H94.6443V126.921H94.6691C95.0164 126.549 95.86 125.73 97.3486 125.73C99.1846 125.73 100.177 126.872 100.177 129.23V134.567H98.7628V134.592ZM109.828 127.095H108.513C108.811 127.542 109.01 128.088 109.01 128.659C109.01 130.496 107.546 131.563 105.635 131.563C105.387 131.563 105.139 131.538 104.916 131.513C104.618 131.638 104.196 131.886 104.196 132.358C104.196 132.705 104.469 132.978 105.114 132.978H106.876C108.687 132.978 109.729 133.723 109.729 135.262C109.729 136.9 108.166 138.414 105.164 138.414C103.105 138.414 101.939 137.62 101.939 136.081C101.939 134.765 102.931 134.219 103.452 133.971V133.946C103.275 133.798 103.133 133.612 103.039 133.401C102.944 133.19 102.899 132.961 102.906 132.73C102.906 131.836 103.7 131.389 103.923 131.29V131.265C103.03 130.843 102.46 129.999 102.46 128.708C102.46 126.772 103.923 125.804 105.735 125.804C106.206 125.804 106.628 125.879 107.025 126.028H110.002L109.828 127.095ZM104.221 134.244C103.775 134.517 103.328 134.939 103.328 135.783C103.328 136.751 103.973 137.173 105.263 137.173C107.372 137.173 108.265 136.354 108.265 135.485C108.265 134.666 107.843 134.343 106.876 134.343H104.965C104.668 134.319 104.444 134.319 104.221 134.244ZM105.759 126.946C104.767 126.946 103.899 127.418 103.899 128.659C103.899 129.9 104.792 130.372 105.735 130.372C106.727 130.372 107.595 129.9 107.595 128.659C107.595 127.418 106.702 126.946 105.759 126.946ZM119.777 127.194H117.718V134.592H116.254V127.194H115.063V126.176L116.254 125.953V124.488C116.254 122.552 117.271 121.584 119.008 121.584C119.628 121.584 120.05 121.808 120.149 121.857L119.951 123.123C119.827 123.074 119.455 122.9 118.983 122.9C118.14 122.9 117.718 123.322 117.718 124.513V125.953H119.976L119.777 127.194ZM128.362 134.592H127.022V133.624H126.997C126.724 133.946 126.029 134.815 124.342 134.815C122.556 134.815 121.588 133.723 121.588 131.315V125.978H123.052V131.091C123.052 132.804 123.548 133.549 124.715 133.549C125.93 133.549 126.575 132.953 126.923 132.606V125.978H128.386V134.592H128.362ZM123.4 124.389C122.903 124.389 122.506 124.042 122.506 123.471C122.506 122.925 122.903 122.552 123.4 122.552C123.896 122.552 124.293 122.925 124.293 123.471C124.293 124.042 123.896 124.389 123.4 124.389ZM126.476 124.389C125.98 124.389 125.583 124.042 125.583 123.471C125.583 122.925 125.98 122.552 126.476 122.552C126.972 122.552 127.369 122.925 127.369 123.471C127.344 124.042 126.947 124.389 126.476 124.389ZM135.259 127.269C135.16 127.219 134.936 127.095 134.465 127.095C133.324 127.095 132.728 127.79 132.48 128.311V134.592H131.016V125.953H132.356V127.219H132.381C132.654 126.598 133.225 125.779 134.564 125.779C134.912 125.779 135.135 125.829 135.358 125.903L135.259 127.269ZM150.79 134.592H149.327L143.099 125.01H143.074V134.592H141.511V122.18H142.975L149.202 131.712H149.227V122.18H150.79V134.592ZM157.191 129.801H157.911V129.13C157.911 127.616 157.315 127.045 156.199 127.045C155.157 127.045 154.437 127.542 154.065 127.84L153.519 126.772C153.966 126.425 154.859 125.754 156.472 125.754C158.358 125.754 159.375 126.847 159.375 129.13V132.804C159.375 133.549 159.449 134.368 159.474 134.592H158.085L158.035 133.648H158.01C157.712 134.145 156.968 134.815 155.604 134.815C154.189 134.815 153.271 133.797 153.271 132.358C153.247 130.57 154.958 129.801 157.191 129.801ZM157.911 132.705V130.843L157.092 130.868C155.455 130.943 154.71 131.34 154.71 132.258C154.71 133.102 155.281 133.574 155.926 133.574C157.067 133.574 157.588 133.053 157.911 132.705ZM167.537 127.641C167.031 127.235 166.4 127.016 165.751 127.02C164.188 127.02 163.047 127.914 163.047 130.148C163.047 132.631 164.089 133.524 165.627 133.524C166.545 133.524 167.116 133.177 167.413 132.953L167.835 134.045C167.513 134.343 166.818 134.815 165.354 134.815C163.096 134.815 161.533 133.475 161.533 130.198C161.533 127.045 163.692 125.73 165.701 125.73C167.016 125.73 167.637 126.226 168.009 126.474L167.537 127.641ZM175.377 134.592V129.478C175.377 127.815 174.881 127.02 173.641 127.02C172.475 127.02 171.78 127.591 171.383 127.964V134.592H169.919V121.882L171.383 121.708V126.847H171.408C171.83 126.425 172.648 125.754 173.988 125.754C175.824 125.754 176.816 126.896 176.816 129.255V134.592H175.377ZM184.88 134.592V129.478C184.88 127.815 184.384 127.02 183.143 127.02C181.977 127.02 181.282 127.591 180.885 127.964V134.592H179.422V121.882L180.885 121.708V126.847H180.91C181.332 126.425 182.151 125.754 183.49 125.754C185.326 125.754 186.319 126.896 186.319 129.255V134.592H184.88ZM192.323 129.801H193.043V129.13C193.043 127.616 192.447 127.045 191.331 127.045C190.289 127.045 189.569 127.542 189.197 127.84L188.651 126.772C189.098 126.425 189.991 125.754 191.604 125.754C193.489 125.754 194.506 126.847 194.506 129.13V132.804C194.506 133.549 194.581 134.368 194.606 134.592H193.191L193.142 133.648H193.117C192.819 134.145 192.075 134.815 190.71 134.815C189.296 134.815 188.378 133.797 188.378 132.358C188.378 130.57 190.065 129.801 192.323 129.801ZM193.043 132.705V130.843L192.224 130.868C190.586 130.943 189.842 131.34 189.842 132.258C189.842 133.102 190.413 133.574 191.058 133.574C192.174 133.574 192.72 133.053 193.043 132.705ZM198.575 132.482C198.575 133.301 198.823 133.549 199.394 133.549C199.692 133.549 199.915 133.475 200.014 133.45L200.113 134.492C200.014 134.542 199.617 134.765 198.923 134.765C197.781 134.765 197.136 134.244 197.136 132.556V121.882L198.6 121.708V132.482H198.575ZM205.795 127.194H203.562V131.662C203.562 133.003 203.909 133.524 204.852 133.524C205.324 133.524 205.671 133.35 205.87 133.276L206.018 134.443C205.87 134.542 205.398 134.815 204.48 134.815C202.793 134.815 202.123 133.847 202.123 131.861V127.194H200.932V126.176L202.123 125.953L202.297 123.545H203.587V125.953H205.994L205.795 127.194ZM208.524 123.868C207.954 123.868 207.507 123.471 207.507 122.85C207.507 122.23 207.954 121.808 208.524 121.808C209.095 121.808 209.566 122.23 209.566 122.85C209.566 123.471 209.095 123.868 208.524 123.868ZM209.244 134.592H207.78V125.953H209.244V134.592ZM218.945 127.095H217.63C217.927 127.542 218.126 128.088 218.126 128.659C218.126 130.496 216.662 131.563 214.752 131.563C214.504 131.563 214.255 131.538 214.032 131.513C213.734 131.638 213.313 131.886 213.313 132.358C213.313 132.705 213.586 132.978 214.231 132.978H215.992C217.803 132.978 218.845 133.723 218.845 135.262C218.845 136.9 217.282 138.414 214.28 138.414C212.221 138.414 211.055 137.62 211.055 136.081C211.055 134.765 212.047 134.219 212.568 133.971V133.946C212.391 133.798 212.249 133.612 212.155 133.401C212.06 133.19 212.015 132.961 212.023 132.73C212.023 131.836 212.816 131.389 213.04 131.29V131.265C212.147 130.843 211.576 129.999 211.576 128.708C211.576 126.772 213.04 125.804 214.851 125.804C215.322 125.804 215.744 125.879 216.141 126.028H219.118L218.945 127.095ZM213.337 134.244C212.891 134.517 212.444 134.939 212.444 135.783C212.444 136.751 213.089 137.173 214.379 137.173C216.488 137.173 217.382 136.354 217.382 135.485C217.382 134.666 216.96 134.343 215.992 134.343H214.082C213.784 134.319 213.536 134.319 213.337 134.244ZM214.851 126.946C213.858 126.946 212.99 127.418 212.99 128.659C212.99 129.9 213.883 130.372 214.826 130.372C215.818 130.372 216.687 129.9 216.687 128.659C216.687 127.418 215.794 126.946 214.851 126.946ZM224.254 129.85L227.827 134.592H225.991L223.063 130.57H222.344V134.592H220.88V121.882L222.344 121.708V129.329H223.088L225.916 125.953H227.678L224.254 129.85ZM235.146 130.595H230.134C230.233 132.606 231.201 133.524 232.764 133.524C234.129 133.524 234.798 132.928 235.022 132.705L235.444 133.748C235.146 134.045 234.426 134.815 232.59 134.815C230.134 134.815 228.67 133.4 228.67 130.173C228.67 127.145 230.457 125.754 232.417 125.754C234.203 125.754 235.32 126.971 235.32 129.13C235.32 129.701 235.245 130.173 235.146 130.595ZM230.134 129.453H233.905C233.93 129.23 233.93 129.056 233.93 128.882C233.93 127.666 233.31 126.996 232.268 126.996C231.077 126.996 230.233 127.864 230.134 129.453ZM238.346 123.868C237.776 123.868 237.329 123.471 237.329 122.85C237.329 122.23 237.776 121.808 238.346 121.808C238.917 121.808 239.388 122.23 239.388 122.85C239.388 123.471 238.942 123.868 238.346 123.868ZM239.066 134.592H237.602V125.953H239.066V134.592ZM245.814 127.194H243.581V131.662C243.581 133.003 243.929 133.524 244.872 133.524C245.343 133.524 245.69 133.35 245.889 133.276L246.038 134.443C245.889 134.542 245.417 134.815 244.499 134.815C242.812 134.815 242.142 133.847 242.142 131.861V127.194H240.951V126.176L242.142 125.953L242.316 123.545H243.606V125.953H246.013L245.814 127.194Z" fill="black"/>
</g>
<defs>
<clipPath id="clip0_137_495">
<rect width="282" height="181" fill="white"/>
</clipPath>
</defs>
</svg>
