<svg width="282" height="181" viewBox="0 0 282 181" fill="none" xmlns="http://www.w3.org/2000/svg">
<g clip-path="url(#clip0_137_521)">
<path d="M0 0H282V181H0V0Z" fill="white"/>
<path d="M76.9264 81.9339C78.0653 83.7396 78.9573 83.7083 80.3054 83.7083C79.1921 82.8567 78.4572 81.76 78.1045 81.199L76.0214 77.8682C75.8174 76.8414 75.2864 75.8807 74.4906 75.1628C74.7567 75.0636 74.9825 74.9545 75.1129 74.8544C73.7556 74.8544 72.4075 74.1629 71.6638 74.1629C71.1907 74.1629 70.8811 74.45 70.8811 74.8244C70.9123 75.2463 71.3464 75.6716 72.1427 75.6716C72.3253 75.6716 72.5558 75.6503 72.8084 75.6068C73.2425 76.2069 73.5908 76.7501 73.5908 77.5285C73.5908 78.9902 71.8465 80.1248 70.0852 80.1248C69.9861 80.1248 69.8903 80.1213 69.7947 80.1126C69.6334 79.7517 69.1032 79.1472 69.1032 78.4548C69.1032 77.2937 69.859 76.3504 69.859 75.2027C69.859 74.4891 69.5116 74.046 69.3772 73.8624C69.5942 73.6628 69.8291 73.415 69.886 73.2453C69.7591 73.3023 69.612 73.3058 69.3938 73.3058C68.55 73.3058 67.8585 73.0884 67.1893 73.0884C66.8066 73.0884 66.7062 73.2067 66.7062 73.3188C66.7062 73.358 66.7109 73.4015 66.724 73.4237C66.5805 73.3667 66.4456 73.3324 66.2843 73.3023C66.0895 73.2624 65.876 73.2453 65.6499 73.2453C64.8327 73.2453 64.5452 73.5841 64.5452 73.8802C64.5452 74.1286 64.7413 74.5761 64.9627 74.9244C65.2801 74.7631 65.6585 74.654 65.8324 74.654C66.2677 74.654 66.6496 75.0671 66.8545 75.5545C66.5627 75.5889 66.5057 75.6024 66.2152 75.6024C65.4193 75.6024 64.8805 75.3197 64.7713 75.3197C64.7579 75.3197 64.7369 75.3241 64.7369 75.3419C64.7369 75.4541 64.9627 75.7459 65.4058 75.9065C65.9894 76.1248 66.8675 76.2113 67.0114 76.2369C67.0114 76.2639 66.8631 76.5375 66.6975 76.59C66.6626 76.6023 66.6375 76.6023 66.5939 76.5944C65.9846 76.4718 65.8146 76.4239 65.041 76.1291C65.0153 76.12 65.0018 76.1335 65.0018 76.1591C65.0018 76.4631 65.7934 77.1419 66.5057 77.3981C65.9103 78.1596 65.171 78.9332 64.8236 80.1126C64.7251 80.1211 64.6263 80.1251 64.5274 80.1248C62.7661 80.1248 61.0226 78.9902 61.0226 77.5285C61.0226 76.7501 61.3701 76.2069 61.8054 75.6068C62.0572 75.6503 62.2877 75.6716 62.4713 75.6716C63.2662 75.6716 63.7016 75.2463 63.7315 74.8244C63.7315 74.45 63.4276 74.1629 62.9488 74.1629C62.2051 74.1629 60.8613 74.8544 59.501 74.8544C59.6358 74.9545 59.8571 75.0636 60.122 75.1628C59.3262 75.8807 58.796 76.8414 58.5912 77.8682L56.5129 81.199C56.161 81.76 55.4209 82.8567 54.3076 83.7083C55.6509 83.7083 56.5473 83.7396 57.6875 81.9339L58.7529 80.2292C58.8353 80.4514 58.9324 80.6678 59.0435 80.8771L56.9212 84.2741C56.5694 84.8394 55.8348 85.9219 54.7172 86.7833C56.0654 86.7833 56.9561 86.8133 58.0959 85.0085L59.9219 82.0861C60.0611 82.23 60.2046 82.3735 60.3573 82.5084L57.7788 86.6355C57.4213 87.2008 56.6955 88.2841 55.5731 89.1404C56.9212 89.1404 57.8132 89.1747 58.9521 87.3699L61.4658 83.3477C61.6334 83.4539 61.8047 83.5542 61.9794 83.6483L58.9087 88.5624C58.5569 89.1234 57.8267 90.2011 56.7042 91.0673C58.0523 91.0673 58.9443 91.0974 60.0877 89.2974L63.2449 84.2392C63.4319 84.3083 63.6236 84.3784 63.815 84.4388L60.2447 90.1532C59.8963 90.7099 59.1478 91.811 58.0436 92.6581C59.3875 92.6581 60.2837 92.6895 61.418 90.8882L65.2232 84.8007C65.2623 84.805 65.3015 84.8086 65.3415 84.8172C65.445 85.1477 65.515 85.4574 65.515 85.7613C65.515 87.6753 64.2626 89.3661 62.753 90.6712C62.8487 90.7099 63.0192 90.7278 63.1705 90.7278C63.4845 90.7278 63.6836 90.7099 63.8273 90.6842C63.4753 91.4805 62.7274 92.5068 62.3486 93.0322C61.8533 92.9456 61.1353 92.8765 60.6656 92.8765C60.1746 92.8765 60.1176 93.1627 60.1176 93.4196C60.1176 93.8672 60.3268 94.2247 60.57 94.4195C60.6608 94.1933 60.8447 93.8898 61.7533 93.8898C61.7711 93.8898 61.8054 93.8898 61.8446 93.8941C61.5793 94.1889 60.7491 94.8591 60.7491 95.4028C60.7491 95.7589 61.1396 96.2986 61.6619 96.2986C61.6319 96.1807 61.6319 96.0772 61.6319 95.9937C61.6319 95.5597 62.0225 95.0462 62.3486 94.6856C62.3399 94.7935 62.3442 94.7813 62.3442 94.907C62.3442 95.9416 62.44 96.4199 63.097 96.4199C63.4189 96.4199 63.6402 96.2421 63.7194 96.1894C63.2928 95.7945 63.2706 95.4849 63.2706 94.907C63.2706 94.7547 63.2706 94.6064 63.275 94.4029C63.275 94.2681 63.2706 94.0933 63.254 93.9628C63.4888 93.9329 63.5846 93.9329 63.7628 93.9329C63.7628 93.9329 64.6979 93.8585 64.924 94.346C65.1754 94.1111 65.545 93.7849 65.545 93.424C65.545 93.1848 65.4328 92.9109 64.9497 92.9109C64.767 92.9109 64.1925 93.0235 63.715 93.0235C63.8451 92.7373 64.4195 91.898 64.9149 91.2888C64.9883 91.524 65.1067 91.7797 65.3672 91.9894C65.4058 91.597 65.6319 90.358 66.2451 89.6323C66.32 90.1233 66.4148 90.6229 66.4148 91.684C66.4148 94.259 65.7934 96.1643 64.4796 96.5248C64.65 96.8243 65.0153 97.0905 65.3893 97.0905C65.8668 97.0905 66.1329 96.546 66.3978 96.0338C66.5369 96.4112 66.9201 97.3419 67.3063 97.3419C67.6938 97.3419 68.0769 96.4112 68.216 96.0338C68.4809 96.546 68.7457 97.0905 69.2246 97.0905C69.6029 97.0905 69.9639 96.8243 70.133 96.5248C68.8206 96.1643 68.1982 94.259 68.1982 91.684C68.1982 90.6229 68.294 90.1233 68.3674 89.6323C68.9806 90.358 69.2111 91.597 69.2458 91.9894C69.5072 91.7797 69.6242 91.524 69.6991 91.2888C70.1944 91.898 70.7688 92.7373 70.8989 93.0235C70.42 93.0235 69.8456 92.9109 69.6633 92.9109C69.181 92.9109 69.0676 93.1848 69.0676 93.424C69.0676 93.7849 69.4372 94.1111 69.6899 94.346C69.916 93.8585 70.851 93.9329 70.851 93.9329C71.0337 93.9329 71.1293 93.9329 71.3642 93.9628C71.3421 94.0933 71.3376 94.2681 71.3421 94.4029V94.907C71.3421 95.4849 71.3207 95.7945 70.8945 96.1894C70.9723 96.2421 71.1941 96.4199 71.5155 96.4199C72.1726 96.4199 72.2683 95.9416 72.2683 94.907C72.2683 94.7813 72.2727 94.7935 72.264 94.6856C72.5901 95.0462 72.982 95.5597 72.982 95.9937C72.982 96.0772 72.9863 96.1807 72.9519 96.2986C73.4729 96.2986 73.8648 95.7589 73.8648 95.4028C73.8648 94.8591 73.0342 94.1889 72.7693 93.8941C72.8127 93.8898 72.8428 93.8898 72.8606 93.8898C73.7691 93.8898 73.9518 94.1933 74.0431 94.4195C74.2867 94.2247 74.495 93.8672 74.495 93.4196C74.495 93.1627 74.4393 92.8765 73.9474 92.8765C73.4773 92.8765 72.7606 92.9456 72.264 93.0322C71.8865 92.5068 71.1384 91.4805 70.7854 90.6842C70.9289 90.7099 71.1293 90.7278 71.4425 90.7278C71.599 90.7278 71.7639 90.7099 71.86 90.6712C70.3557 89.3661 69.0989 87.6753 69.0989 85.7613C69.0989 85.4574 69.1676 85.1477 69.2724 84.8172C69.3115 84.8086 69.3503 84.805 69.3893 84.8007L73.1946 90.8882C74.3344 92.6895 75.2264 92.6581 76.5737 92.6581C75.4648 91.811 74.7176 90.7099 74.3693 90.1532L70.7989 84.4388C70.9945 84.3784 71.1815 84.3083 71.369 84.2392L74.5306 89.2974C75.6696 91.0974 76.561 91.0673 77.9097 91.0673C76.7872 90.2011 76.0614 89.1234 75.7039 88.5624L72.638 83.6483C72.8128 83.5525 72.982 83.4525 73.1467 83.3477L75.6605 87.3699C76.8007 89.1747 77.6914 89.1404 79.0395 89.1404C77.917 88.2841 77.1913 87.2008 76.835 86.6355L74.2557 82.5084C74.4059 82.3745 74.5496 82.2336 74.6863 82.0861L76.5181 85.0085C77.6565 86.8133 78.5485 86.7833 79.8966 86.7833C78.779 85.9219 78.0488 84.8394 77.6914 84.2741L75.5691 80.8771C75.6831 80.6645 75.783 80.451 75.8609 80.2292L76.9264 81.9339ZM59.8872 78.0252C59.8872 76.7549 60.8091 75.755 61.1353 75.4719C61.2145 75.489 61.2923 75.5068 61.3701 75.5246C61.0226 75.9464 60.4138 76.65 60.4138 77.5851C60.4138 79.442 62.3969 81.0555 64.6457 81.0555C64.6313 81.2221 64.6239 81.3892 64.6235 81.5565C64.6235 81.8305 64.6365 82.0817 64.6622 82.3214C62.1229 82.308 59.8872 80.247 59.8872 78.0252ZM63.3318 93.2505L63.314 93.2939H63.3576C64.0712 93.2939 64.4195 93.2418 64.65 93.2061C64.7713 93.194 64.8583 93.1762 64.9497 93.1762C65.1318 93.1762 65.2758 93.1983 65.2758 93.424C65.2758 93.5766 65.0975 93.815 64.924 93.9541C64.6622 93.7114 64.2969 93.6593 63.7628 93.6593C63.5145 93.6593 63.1836 93.7071 63.0101 93.728L62.9835 93.7328L62.9535 93.7372L62.9622 93.8193C62.9835 93.9676 63.0101 94.1503 63.0101 94.4029L63.0058 94.6243L63.0014 94.907C63.0014 95.5114 63.0836 95.8545 63.2976 96.1164C63.2449 96.1372 63.1536 96.1551 63.097 96.1551C62.7183 96.1551 62.6091 95.9894 62.6091 94.907C62.6091 94.6899 62.6017 94.4852 62.5926 94.3504L62.5791 94.1455L62.5361 94.1846C61.9746 94.6108 61.4014 95.3723 61.3657 95.9416C61.1966 95.8333 61.0139 95.5897 61.0139 95.4028C61.0139 95.0896 61.4836 94.6243 62.0225 94.0855L62.3308 93.7714L62.3755 93.7328L62.2708 93.7071C62.1529 93.6758 61.9402 93.6236 61.7533 93.6236C61.1488 93.6236 60.77 93.7371 60.5351 93.9933C60.4486 93.872 60.3795 93.5845 60.3795 93.4196C60.3795 93.3105 60.4003 93.2371 60.4438 93.194C60.4965 93.1413 60.5786 93.1413 60.6535 93.1413H60.6656C61.3358 93.1413 62.1359 93.2627 62.4448 93.3105L62.4669 93.3153L62.4747 93.3018C62.5313 93.2283 63.8059 91.5327 64.1369 90.632C64.2104 90.6021 64.276 90.5798 64.4109 90.5798C64.6622 90.5798 64.7322 90.749 64.8014 91.0104C64.0055 91.9802 63.5102 92.7329 63.3318 93.2505ZM70.2031 90.5798C70.3379 90.5798 70.4022 90.6021 70.4814 90.632C70.8124 91.5327 72.0857 93.2283 72.1383 93.3018L72.1513 93.3153L72.1683 93.3105C72.4823 93.2627 73.2781 93.1413 73.9474 93.1413H73.9648C74.0339 93.1413 74.1165 93.1413 74.1688 93.194C74.2123 93.2371 74.2344 93.3105 74.2344 93.4196C74.2344 93.5845 74.1644 93.872 74.0775 93.9933C73.847 93.7371 73.4638 93.6236 72.8606 93.6236C72.6771 93.6236 72.4597 93.6758 72.3432 93.7071L72.2948 93.7193L72.2426 93.7328L72.5901 94.0855C73.1346 94.6243 73.6 95.0896 73.6 95.4028C73.6 95.5897 73.4173 95.8333 73.2516 95.9416C73.2124 95.3723 72.638 94.6108 72.077 94.1846L72.0291 94.1455L72.0213 94.3504C72.0165 94.4852 72.0035 94.6899 72.0035 94.907C72.0035 95.9894 71.8899 96.1551 71.5155 96.1551C71.4599 96.1551 71.3734 96.1372 71.3164 96.1164C71.529 95.8545 71.6116 95.5114 71.6116 94.907L71.6082 94.6243L71.6038 94.4029C71.6038 94.1503 71.6295 93.9676 71.6517 93.8193L71.6595 93.7372L71.6038 93.728C71.4247 93.7071 71.0994 93.6593 70.851 93.6593C70.3157 93.6593 69.9504 93.7114 69.6899 93.9541C69.5164 93.815 69.3372 93.5766 69.3372 93.424C69.3372 93.1983 69.4764 93.1762 69.6633 93.1762C69.7547 93.1762 69.8426 93.194 69.9639 93.2061C70.1944 93.2418 70.5427 93.2939 71.255 93.2939H71.2985L71.2855 93.2505C71.1028 92.7329 70.6075 91.9802 69.8113 91.0104C69.8812 90.749 69.9504 90.5798 70.2031 90.5798ZM67.2541 75.776C67.1715 75.4454 67.0066 75.1071 66.7888 74.8496C66.5939 74.6191 66.2721 74.3456 65.8324 74.3456C65.6319 74.3456 65.3015 74.4369 65.0889 74.5283C65.0105 74.3844 64.8535 74.0373 64.8535 73.8802C64.8535 73.7198 65.1275 73.5542 65.6499 73.5542C66.7975 73.5542 67.4846 74.0716 67.4846 74.941C67.4846 75.2506 67.3632 75.5289 67.2541 75.776ZM67.7673 74.6417C67.7294 74.4033 67.6339 74.1777 67.4889 73.9847C67.4976 73.759 67.589 73.5407 67.9543 73.7198C67.7595 73.919 67.9064 74.2765 67.9064 74.2765C67.9064 74.2765 68.3118 74.0894 68.2239 73.8234C68.8205 73.9669 68.3939 74.7631 67.7673 74.6417ZM70.0025 82.3214C70.0331 82.0731 70.0509 81.8169 70.0509 81.5565C70.0509 81.413 70.0509 81.2424 70.033 81.0555C72.2561 81.0206 74.2 79.4255 74.2 77.5851C74.2 76.65 73.5908 75.9464 73.2468 75.5246C73.3216 75.5068 73.3995 75.489 73.4773 75.4719C73.8035 75.755 74.7254 76.7549 74.7254 78.0252C74.7254 80.2292 72.521 82.2779 70.0025 82.3214ZM87.0675 74.2017H90.9641V96.4678H87.0675V74.2017Z" fill="#231F20"/>
<path d="M87.0674 96.3556H90.964V118.735H87.0674V96.3556Z" fill="#ED1C24"/>
<path d="M87.0674 118.734H90.964V141H87.0674V118.734Z" fill="#F2CF04"/>
<path d="M185.474 77.485C186.143 77.485 186.434 77.9247 186.434 78.968V83.095H187.518V78.794C187.518 78.5505 187.504 78.3243 187.465 78.1251C187.705 77.8468 188.104 77.485 188.696 77.485C189.414 77.485 189.804 77.9247 189.804 78.968V83.095H190.883V78.794C190.883 77.268 190.219 76.5195 188.935 76.5195C188.104 76.5195 187.518 77.0154 187.239 77.3772C186.943 76.8026 186.409 76.5195 185.686 76.5195C184.808 76.5195 184.26 77.111 184.086 77.4023H184.06V76.6814H183.069V83.095H184.151V78.1508C184.338 77.9247 184.751 77.485 185.474 77.485ZM180.398 82.3735H180.425V83.095H181.411V76.6814H180.334V81.5864C180.115 81.8512 179.69 82.2957 179.038 82.2957C178.315 82.2957 177.968 81.8647 177.968 80.8127V76.6814H176.884V80.8905C176.884 82.6262 177.594 83.2563 178.728 83.2563C179.702 83.2563 180.277 82.5997 180.398 82.3735ZM175.267 76.6814H174.184V83.095H175.267V76.6814ZM174.731 75.1326C175.162 75.1326 175.454 74.8109 175.454 74.3586C175.454 73.9146 175.162 73.5971 174.731 73.5971C174.293 73.5971 173.997 73.9146 173.997 74.3586C173.997 74.8109 174.293 75.1326 174.731 75.1326ZM173.248 76.6678C173.145 76.6287 172.97 76.563 172.662 76.563C171.849 76.563 171.501 77.0419 171.314 77.5506H171.288V76.6814H170.296V83.095H171.379V78.3943C171.54 77.9638 171.9 77.525 172.584 77.525C172.874 77.525 173.061 77.6029 173.118 77.6285L173.248 76.6678ZM168.987 82.4948L168.587 81.7342C168.439 81.8782 168 82.2957 167.239 82.2957C166.156 82.2957 165.569 81.5864 165.503 80.09H168.774C168.813 79.7816 168.856 79.3942 168.856 78.8466C168.856 77.3115 168.108 76.5195 166.89 76.5195C165.555 76.5195 164.447 77.5372 164.447 79.8073C164.447 82.2252 165.46 83.2563 167.077 83.2563C168.295 83.2563 168.813 82.6819 168.987 82.4948ZM166.826 77.4023C167.504 77.4023 167.864 77.9247 167.864 78.8074C167.864 79.008 167.852 79.1815 167.839 79.2728H165.517C165.569 78.073 166.064 77.4023 166.826 77.4023ZM163.778 82.9737L163.634 82.1087C163.525 82.1731 163.285 82.2957 162.964 82.2957C162.416 82.2957 162.203 82.0252 162.203 81.1167V77.5641H163.603L163.737 76.6814H162.203V74.8931H161.241L161.12 76.6814L160.346 76.8414V77.5641H161.12V81.2646C161.12 82.6819 161.681 83.2563 162.777 83.2563C163.351 83.2563 163.686 83.0437 163.778 82.9737ZM159.423 77.2023C159.211 76.9896 158.78 76.5195 157.794 76.5195C156.749 76.5195 155.937 77.2289 155.937 78.1764C155.937 79.0593 156.419 79.5811 157.219 80.09L157.619 80.3426C158.232 80.7292 158.554 80.9428 158.554 81.5608C158.554 81.9739 158.207 82.2957 157.566 82.2957C156.871 82.2957 156.471 81.8782 156.271 81.6642L155.75 82.5214C156.001 82.7866 156.523 83.2563 157.554 83.2563C158.863 83.2563 159.598 82.4692 159.598 81.4515C159.598 80.5031 159.063 79.9821 158.193 79.4598L157.794 79.2206C157.219 78.8722 156.954 78.6069 156.954 78.1251C156.954 77.7511 157.258 77.4415 157.832 77.4415C158.437 77.4415 158.811 77.8155 158.955 77.9768L159.423 77.2023ZM154.536 76.6814H153.453V83.095H154.536V76.6814ZM154.001 75.1326C154.427 75.1326 154.723 74.8109 154.723 74.3586C154.723 73.9146 154.427 73.5971 154.001 73.5971C153.557 73.5971 153.266 73.9146 153.266 74.3586C153.266 74.8109 153.557 75.1326 154.001 75.1326ZM149.643 77.4415C150.391 77.4415 150.752 77.886 150.752 78.968V83.095H151.835V78.8853C151.835 77.151 151.114 76.5195 149.965 76.5195C148.961 76.5195 148.386 77.1767 148.269 77.4023H148.242V76.6814H147.252V83.095H148.334V78.1508C148.548 77.886 148.991 77.4415 149.643 77.4415ZM145.595 76.6814H144.516V83.095H145.595V76.6814ZM145.06 75.1326C145.49 75.1326 145.782 74.8109 145.782 74.3586C145.782 73.9146 145.49 73.5971 145.06 73.5971C144.621 73.5971 144.329 73.9146 144.329 74.3586C144.329 74.8109 144.621 75.1326 145.06 75.1326ZM137.488 77.485C138.154 77.485 138.45 77.9247 138.45 78.968V83.095H139.532V78.794C139.532 78.5505 139.52 78.3243 139.476 78.1251C139.719 77.8468 140.12 77.485 140.707 77.485C141.428 77.485 141.815 77.9247 141.815 78.968V83.095H142.899V78.794C142.899 77.268 142.228 76.5195 140.946 76.5195C140.12 76.5195 139.532 77.0154 139.25 77.3772C138.959 76.8026 138.423 76.5195 137.702 76.5195C136.819 76.5195 136.271 77.111 136.097 77.4023H136.071V76.6814H135.083V83.095H136.167V78.1508C136.354 77.9247 136.767 77.485 137.488 77.485ZM133.64 77.2023C133.427 76.9896 132.996 76.5195 132.009 76.5195C130.97 76.5195 130.152 77.2289 130.152 78.1764C130.152 79.0593 130.635 79.5811 131.435 80.09L131.835 80.3426C132.453 80.7292 132.77 80.9428 132.77 81.5608C132.77 81.9739 132.423 82.2957 131.783 82.2957C131.087 82.2957 130.687 81.8782 130.487 81.6642L129.965 82.5214C130.218 82.7866 130.739 83.2563 131.77 83.2563C133.079 83.2563 133.814 82.4692 133.814 81.4515C133.814 80.5031 133.279 79.9821 132.409 79.4598L132.009 79.2206C131.435 78.8722 131.17 78.6069 131.17 78.1251C131.17 77.7511 131.474 77.4415 132.049 77.4415C132.653 77.4415 133.026 77.8155 133.17 77.9768L133.64 77.2023ZM129.095 82.4948L128.695 81.7342C128.548 81.8782 128.109 82.2957 127.347 82.2957C126.264 82.2957 125.677 81.5864 125.612 80.09H128.882C128.926 79.7816 128.965 79.3942 128.965 78.8466C128.965 77.3115 128.217 76.5195 126.999 76.5195C125.664 76.5195 124.555 77.5372 124.555 79.8073C124.555 82.2252 125.568 83.2563 127.186 83.2563C128.404 83.2563 128.926 82.6819 129.095 82.4948ZM126.934 77.4023C127.612 77.4023 127.973 77.9247 127.973 78.8074C127.973 79.008 127.96 79.1815 127.947 79.2728H125.625C125.677 78.073 126.173 77.4023 126.934 77.4023ZM122.176 82.4122H122.203V83.095H123.194V73.5284L122.111 73.6497V76.7243C121.911 76.6422 121.615 76.563 121.202 76.563C119.841 76.563 118.371 77.3893 118.371 79.9821C118.371 82.3214 119.397 83.2563 120.615 83.2563C121.628 83.2563 122.055 82.6127 122.176 82.4122ZM120.907 82.2957C120.159 82.2957 119.493 81.7034 119.493 79.9421C119.493 78.1251 120.28 77.485 121.281 77.485C121.667 77.485 121.924 77.5898 122.111 77.712V81.6642C121.963 81.8782 121.589 82.2957 120.907 82.2957ZM114.857 77.4415C115.605 77.4415 115.966 77.886 115.966 78.968V83.095H117.049V78.8853C117.049 77.151 116.327 76.5195 115.174 76.5195C114.175 76.5195 113.6 77.1767 113.479 77.4023H113.452V76.6814H112.465V83.095H113.548V78.1508C113.761 77.886 114.2 77.4415 114.857 77.4415ZM109.79 82.3735H109.821V83.095H110.808V76.6814H109.726V81.5864C109.512 81.8512 109.087 82.2957 108.43 82.2957C107.707 82.2957 107.36 81.8647 107.36 80.8127V76.6814H106.277V80.8905C106.277 82.6262 106.986 83.2563 108.121 83.2563C109.099 83.2563 109.673 82.5997 109.79 82.3735ZM103.646 80.5166C103.646 81.5729 103.059 82.1339 101.698 82.1339H100.975V78.8989H101.763C102.967 78.8989 103.646 79.529 103.646 80.5166ZM103.472 76.2682C103.472 77.3245 102.82 77.9768 101.576 77.9768H100.975V74.7974H101.589C102.885 74.7974 103.472 75.4289 103.472 76.2682ZM104.65 76.2281C104.65 74.7974 103.781 73.8754 101.589 73.8754H99.8143V83.095H101.698C103.902 83.095 104.89 82.0383 104.89 80.5944C104.89 79.3684 104.103 78.564 103.154 78.3765V78.3513C103.954 78.1373 104.65 77.5116 104.65 76.2281ZM227.61 95.8545L227.209 95.0939C227.061 95.2378 226.622 95.6553 225.861 95.6553C224.779 95.6553 224.191 94.946 224.122 93.4496H227.396C227.435 93.1412 227.479 92.7538 227.479 92.2063C227.479 90.6712 226.73 89.8792 225.514 89.8792C224.179 89.8792 223.069 90.8968 223.069 93.167C223.069 95.5848 224.083 96.616 225.701 96.616C226.918 96.616 227.435 96.0415 227.61 95.8545ZM225.448 90.762C226.127 90.762 226.488 91.2844 226.488 92.1671C226.488 92.3676 226.474 92.5412 226.461 92.6325H224.139C224.191 91.4327 224.688 90.762 225.448 90.762ZM221.704 90.041H220.625V96.4547H221.704V90.041ZM221.173 88.4923C221.599 88.4923 221.891 88.1706 221.891 87.7182C221.891 87.2742 221.599 86.9567 221.173 86.9567C220.73 86.9567 220.438 87.2742 220.438 87.7182C220.438 88.1706 220.73 88.4923 221.173 88.4923ZM216.402 98.3638C215.642 98.3638 215.268 98.0163 215.268 97.3375C215.268 96.6938 215.615 96.3899 215.92 96.2163C216.067 96.242 216.242 96.2555 216.416 96.2555H217.228C217.885 96.2555 218.312 96.4946 218.312 97.107C218.312 97.7637 217.712 98.3638 216.402 98.3638ZM219.421 96.9513C219.421 95.7331 218.512 95.2501 217.299 95.2501H216.48C216.015 95.2501 215.829 95.063 215.829 94.7977C215.829 94.4629 216.133 94.2894 216.35 94.198C216.455 94.2111 216.564 94.2111 216.681 94.2111C217.938 94.2111 218.898 93.3931 218.898 92.0323C218.898 91.6061 218.795 91.2064 218.594 90.8847H219.395L219.542 90.041H217.59C217.319 89.9335 217.029 89.8786 216.737 89.8792C215.533 89.8792 214.559 90.5886 214.559 92.0323C214.559 93.05 214.997 93.6892 215.654 93.9976V94.0241C215.494 94.1019 214.88 94.3716 214.88 95.063C214.88 95.4684 215.024 95.7589 215.294 95.9594V95.9859C214.997 96.1463 214.224 96.6025 214.224 97.5511C214.224 98.66 214.958 99.2858 216.32 99.2858C218.22 99.2858 219.421 98.3251 219.421 96.9513ZM217.846 92.0323C217.846 92.9543 217.338 93.3153 216.724 93.3153C216.133 93.3153 215.615 92.9543 215.615 92.0323C215.615 91.1108 216.133 90.749 216.751 90.749C217.338 90.749 217.846 91.1108 217.846 92.0323ZM212.314 93.2505C212.314 94.946 211.792 95.6553 210.91 95.6553C210.031 95.6553 209.497 94.946 209.497 93.2505C209.497 91.5491 210.014 90.8012 210.897 90.8012C211.78 90.8012 212.314 91.5491 212.314 93.2505ZM208.374 93.2505C208.374 95.6553 209.453 96.616 210.87 96.616C212.275 96.616 213.437 95.6375 213.437 93.2505C213.437 90.8847 212.353 89.8792 210.936 89.8792C209.562 89.8792 208.374 90.8847 208.374 93.2505ZM206.691 86.888L205.609 87.0094V95.0509C205.609 96.185 206.1 96.5769 206.822 96.5769C207.304 96.5769 207.583 96.4547 207.692 96.4033L207.596 95.5984C207.53 95.624 207.396 95.681 207.196 95.681C206.822 95.681 206.691 95.4936 206.691 94.9595V86.888ZM203.134 93.2505C203.134 94.946 202.616 95.6553 201.733 95.6553C200.851 95.6553 200.316 94.946 200.316 93.2505C200.316 91.5491 200.838 90.8012 201.721 90.8012C202.604 90.8012 203.134 91.5491 203.134 93.2505ZM199.194 93.2505C199.194 95.6553 200.277 96.616 201.694 96.616C203.095 96.616 204.256 95.6375 204.256 93.2505C204.256 90.8847 203.177 89.8792 201.76 89.8792C200.385 89.8792 199.194 90.8847 199.194 93.2505ZM195.68 90.8012C196.429 90.8012 196.789 91.2456 196.789 92.3276V96.4547H197.873V92.2449C197.873 90.5106 197.15 89.8792 196.002 89.8792C195.001 89.8792 194.423 90.5363 194.305 90.762H194.28V90.041H193.288V96.4547H194.371V91.5105C194.584 91.2456 195.028 90.8012 195.68 90.8012ZM189.483 90.8012C190.231 90.8012 190.593 91.2456 190.593 92.3276V96.4547H191.675V92.2449C191.675 90.5498 190.966 89.8792 189.844 89.8792C188.814 89.8792 188.335 90.4972 188.2 90.6977H188.175V86.888L187.091 87.0094V96.4547H188.175V91.5105C188.387 91.2456 188.827 90.8012 189.483 90.8012ZM185.956 90.5229C185.756 90.2966 185.3 89.8792 184.326 89.8792C183.056 89.8792 181.642 90.7755 181.642 93.237C181.642 95.7467 182.777 96.616 184.203 96.616C185.209 96.616 185.7 96.1463 185.873 95.9459L185.435 95.1987C185.3 95.3457 184.965 95.6553 184.312 95.6553C183.391 95.6553 182.764 95.0373 182.764 93.1547C182.764 91.4578 183.482 90.8012 184.404 90.8012C185.047 90.8012 185.382 91.163 185.499 91.2844L185.956 90.5229ZM180.624 95.8545L180.224 95.0939C180.076 95.2378 179.638 95.6553 178.876 95.6553C177.793 95.6553 177.206 94.946 177.137 93.4496H180.411C180.45 93.1412 180.489 92.7538 180.489 92.2063C180.489 90.6712 179.741 89.8792 178.529 89.8792C177.193 89.8792 176.084 90.8968 176.084 93.167C176.084 95.5848 177.097 96.616 178.716 96.616C179.928 96.616 180.45 96.0415 180.624 95.8545ZM178.459 90.762C179.141 90.762 179.503 91.2844 179.503 92.1671C179.503 92.3676 179.49 92.5412 179.476 92.6325H177.149C177.206 91.4327 177.698 90.762 178.459 90.762ZM176.428 87.2351H170.27V88.1571H172.732V96.4547H173.893V88.1571H176.35L176.428 87.2351ZM165.795 98.3251C166.504 98.0733 167.348 97.4988 167.348 96.2807C167.348 95.3979 166.986 94.9717 166.465 94.9717C166.091 94.9717 165.769 95.2109 165.769 95.6941C165.769 96.185 166.091 96.4547 166.504 96.4547H166.543C166.543 97.2296 166.13 97.5767 165.569 97.855L165.795 98.3251ZM161.72 98.3638C160.959 98.3638 160.585 98.0163 160.585 97.3375C160.585 96.6938 160.933 96.3899 161.241 96.2163C161.385 96.242 161.559 96.2555 161.734 96.2555H162.551C163.203 96.2555 163.634 96.4946 163.634 97.107C163.634 97.7637 163.029 98.3638 161.72 98.3638ZM164.738 96.9513C164.738 95.7331 163.833 95.2501 162.616 95.2501H161.803C161.333 95.2501 161.146 95.063 161.146 94.7977C161.146 94.4629 161.455 94.2894 161.668 94.198C161.777 94.2111 161.88 94.2111 162.003 94.2111C163.26 94.2111 164.221 93.3931 164.221 92.0323C164.221 91.6061 164.112 91.2064 163.912 90.8847H164.712L164.86 90.041H162.911C162.639 89.9334 162.348 89.8785 162.055 89.8792C160.855 89.8792 159.877 90.5886 159.877 92.0323C159.877 93.05 160.32 93.6892 160.972 93.9976V94.0241C160.812 94.1019 160.198 94.3716 160.198 95.063C160.198 95.4684 160.346 95.7589 160.611 95.9594V95.9859C160.32 96.1463 159.541 96.6025 159.541 97.5511C159.541 98.66 160.276 99.2858 161.642 99.2858C163.538 99.2858 164.738 98.3251 164.738 96.9513ZM163.164 92.0323C163.164 92.9543 162.655 93.3153 162.042 93.3153C161.455 93.3153 160.933 92.9543 160.933 92.0323C160.933 91.1108 161.455 90.749 162.068 90.749C162.655 90.749 163.164 91.1108 163.164 92.0323ZM156.311 90.8012C157.058 90.8012 157.419 91.2456 157.419 92.3276V96.4547H158.502V92.2449C158.502 90.5106 157.78 89.8792 156.632 89.8792C155.627 89.8792 155.054 90.5363 154.936 90.762H154.91V90.041H153.918V96.4547H155.001V91.5105C155.214 91.2456 155.658 90.8012 156.311 90.8012ZM151.248 95.7331H151.274V96.4547H152.262V90.041H151.178V94.946C150.966 95.2109 150.539 95.6553 149.882 95.6553C149.165 95.6553 148.817 95.2244 148.817 94.1724V90.041H147.734V94.2502C147.734 95.9859 148.443 96.616 149.578 96.616C150.553 96.616 151.126 95.9594 151.248 95.7331ZM143.969 90.8012C144.716 90.8012 145.077 91.2456 145.077 92.3276V96.4547H146.155V92.2449C146.155 90.5498 145.451 89.8792 144.325 89.8792C143.298 89.8792 142.815 90.4972 142.685 90.6977H142.655V86.888L141.576 87.0094V96.4547H142.655V91.5105C142.872 91.2456 143.312 90.8012 143.969 90.8012ZM140.442 90.5229C140.237 90.2966 139.785 89.8792 138.811 89.8792C137.541 89.8792 136.123 90.7755 136.123 93.237C136.123 95.7467 137.258 96.616 138.689 96.616C139.693 96.616 140.184 96.1463 140.358 95.9459L139.919 95.1987C139.785 95.3457 139.45 95.6553 138.798 95.6553C137.876 95.6553 137.246 95.0373 137.246 93.1547C137.246 91.4578 137.967 90.8012 138.889 90.8012C139.532 90.8012 139.863 91.163 139.984 91.2844L140.442 90.5229ZM134.975 90.5619C134.762 90.3493 134.335 89.8792 133.345 89.8792C132.305 89.8792 131.488 90.5886 131.488 91.5361C131.488 92.4189 131.97 92.9407 132.77 93.4496L133.17 93.7022C133.788 94.0889 134.105 94.3024 134.105 94.9204C134.105 95.3336 133.762 95.6553 133.119 95.6553C132.423 95.6553 132.022 95.2378 131.822 95.0238L131.3 95.8811C131.556 96.1463 132.074 96.616 133.105 96.616C134.415 96.616 135.149 95.8289 135.149 94.8112C135.149 93.8628 134.614 93.3418 133.744 92.8195L133.345 92.5803C132.77 92.2319 132.505 91.9666 132.505 91.4848C132.505 91.1108 132.809 90.8012 133.388 90.8012C133.988 90.8012 134.362 91.1752 134.51 91.3365L134.975 90.5619ZM130.861 90.0274C130.753 89.9884 130.578 89.9227 130.274 89.9227C129.456 89.9227 129.109 90.4015 128.922 90.9103H128.896V90.041H127.908V96.4547H128.992V91.754C129.152 91.3234 129.513 90.8847 130.192 90.8847C130.487 90.8847 130.674 90.9625 130.726 90.9881L130.861 90.0274ZM125.425 93.2505C125.425 94.946 124.904 95.6553 124.021 95.6553C123.138 95.6553 122.602 94.946 122.602 93.2505C122.602 91.5491 123.125 90.8012 124.007 90.8012C124.89 90.8012 125.425 91.5491 125.425 93.2505ZM121.48 93.2505C121.48 95.6553 122.564 96.616 123.982 96.616C125.381 96.616 126.547 95.6375 126.547 93.2505C126.547 90.8847 125.465 89.8792 124.046 89.8792C122.672 89.8792 121.48 90.8847 121.48 93.2505ZM117.302 96.4547V92.489H120.332V91.567H117.302V88.1571H120.59L120.667 87.2351H116.141V96.4547H117.302ZM112.452 90.0274C112.343 89.9884 112.169 89.9227 111.866 89.9227C111.047 89.9227 110.7 90.4015 110.513 90.9103H110.486V90.041H109.5V96.4547H110.582V91.754C110.743 91.3234 111.1 90.8847 111.782 90.8847C112.078 90.8847 112.265 90.9625 112.318 90.9881L112.452 90.0274ZM106.825 95.7331H106.856V96.4547H107.842V90.041H106.76V94.946C106.546 95.2109 106.121 95.6553 105.464 95.6553C104.742 95.6553 104.394 95.2244 104.394 94.1724V90.041H103.311V94.2502C103.311 95.9859 104.02 96.616 105.155 96.616C106.133 96.616 106.708 95.9594 106.825 95.7331ZM105.186 88.1962C105.186 87.783 104.903 87.5182 104.542 87.5182C104.18 87.5182 103.902 87.783 103.902 88.1962C103.902 88.6137 104.18 88.8799 104.542 88.8799C104.903 88.8799 105.186 88.6137 105.186 88.1962ZM107.242 88.1962C107.242 87.783 106.959 87.5182 106.598 87.5182C106.238 87.5182 105.96 87.783 105.96 88.1962C105.96 88.6137 106.238 88.8799 106.598 88.8799C106.959 88.8799 107.242 88.6137 107.242 88.1962ZM102.284 90.9238L102.419 90.041H100.975V88.892C100.975 88.0536 101.254 87.7709 101.763 87.7709C102.045 87.7709 102.246 87.8788 102.35 87.9445L102.581 87.0481C102.471 86.9838 102.124 86.8089 101.671 86.8089C100.724 86.8089 99.893 87.3699 99.893 88.7706V90.0532L99.1185 90.201V90.9238H99.893V96.4547H100.975V90.9238H102.284ZM170.766 109.693L170.618 108.828C170.417 108.949 170.187 109.014 169.952 109.015C169.404 109.015 169.187 108.745 169.187 107.836V104.283H170.592L170.727 103.401H169.187V101.612H168.226L168.108 103.401L167.33 103.561V104.283H168.108V107.984C168.108 109.401 168.669 109.976 169.765 109.976C170.339 109.976 170.67 109.763 170.766 109.693ZM166.917 103.387C166.812 103.348 166.639 103.282 166.33 103.282C165.517 103.282 165.169 103.761 164.982 104.27H164.955V103.401H163.965V109.814H165.047V105.114C165.208 104.683 165.569 104.244 166.251 104.244C166.543 104.244 166.73 104.322 166.787 104.348L166.917 103.387ZM160.159 104.161C160.906 104.161 161.268 104.605 161.268 105.687V109.814H162.35V105.605C162.35 103.909 161.642 103.239 160.52 103.239C159.489 103.239 159.01 103.857 158.876 104.057H158.85V100.248L157.767 100.369V109.814H158.85V104.87C159.063 104.605 159.502 104.161 160.159 104.161ZM155.066 107.01V108.423C154.936 108.623 154.627 109.054 154.001 109.054C153.466 109.054 153.144 108.719 153.144 108.062C153.144 107.357 153.692 107.062 154.723 107.023L155.066 107.01ZM155.066 106.205H154.735C153.279 106.205 152.061 106.701 152.061 108.184C152.061 109.228 152.796 109.976 153.77 109.976C154.588 109.976 154.975 109.428 155.123 109.106H155.149C155.162 109.428 155.175 109.627 155.188 109.814H156.219C156.188 109.64 156.136 109.027 156.136 108.479V105.552C156.136 103.935 155.44 103.239 154.132 103.239C153.105 103.239 152.488 103.735 152.209 104.017L152.661 104.74C152.905 104.523 153.331 104.161 153.97 104.161C154.666 104.161 155.066 104.509 155.066 105.592V106.205ZM151.435 104.283L151.57 103.401H150.126V102.252C150.126 101.413 150.405 101.131 150.913 101.131C151.196 101.131 151.395 101.238 151.5 101.304L151.726 100.408C151.622 100.343 151.274 100.169 150.818 100.169C149.869 100.169 149.043 100.73 149.043 102.13V103.413L148.269 103.561V104.283H149.043V109.814H150.126V104.283H151.435ZM141.706 104.204C142.376 104.204 142.673 104.644 142.673 105.687V109.814H143.75V105.513C143.75 105.27 143.738 105.044 143.698 104.844C143.937 104.566 144.343 104.204 144.929 104.204C145.651 104.204 146.038 104.644 146.038 105.687V109.814H147.121V105.513C147.121 103.987 146.451 103.239 145.169 103.239C144.343 103.239 143.75 103.735 143.472 104.097C143.177 103.522 142.641 103.239 141.924 103.239C141.042 103.239 140.494 103.83 140.319 104.122H140.293V103.401H139.302V109.814H140.385V104.87C140.572 104.644 140.989 104.204 141.706 104.204ZM136.632 109.093H136.658V109.814H137.65V103.401H136.566V108.306C136.354 108.571 135.923 109.015 135.27 109.015C134.549 109.015 134.201 108.584 134.201 107.532V103.401H133.119V107.61C133.119 109.346 133.827 109.976 134.962 109.976C135.936 109.976 136.51 109.319 136.632 109.093ZM130.461 107.01V108.423C130.326 108.623 130.017 109.054 129.391 109.054C128.856 109.054 128.534 108.719 128.534 108.062C128.534 107.357 129.083 107.062 130.113 107.023L130.461 107.01ZM130.461 106.205H130.126C128.669 106.205 127.456 106.701 127.456 108.184C127.456 109.228 128.191 109.976 129.165 109.976C129.978 109.976 130.365 109.428 130.514 109.106H130.539C130.552 109.428 130.566 109.627 130.578 109.814H131.609C131.583 109.64 131.531 109.027 131.531 108.479V105.552C131.531 103.935 130.835 103.239 129.526 103.239C128.495 103.239 127.882 103.735 127.6 104.017L128.056 104.74C128.295 104.523 128.721 104.161 129.365 104.161C130.06 104.161 130.461 104.509 130.461 105.592V106.205ZM122.337 106.061H122.846C123.059 106.061 123.272 106.049 123.472 106.036L125.381 109.814H126.747L124.582 105.753C125.638 105.301 126.16 104.379 126.16 103.174C126.16 101.478 125.116 100.595 122.898 100.595H121.176V109.814H122.337V106.061ZM124.916 103.239C124.916 104.444 124.247 105.139 122.846 105.139H122.337V101.517H122.898C124.272 101.517 124.916 102.078 124.916 103.239ZM115.445 109.132H115.471V109.814H116.458V100.248L115.375 100.369V103.444C115.174 103.361 114.884 103.282 114.471 103.282C113.105 103.282 111.635 104.109 111.635 106.701C111.635 109.041 112.665 109.976 113.878 109.976C114.896 109.976 115.322 109.332 115.445 109.132ZM114.175 109.015C113.427 109.015 112.756 108.423 112.756 106.661C112.756 104.844 113.548 104.204 114.549 104.204C114.935 104.204 115.188 104.309 115.375 104.431V108.384C115.231 108.597 114.857 109.015 114.175 109.015ZM108.121 104.161C108.869 104.161 109.23 104.605 109.23 105.687V109.814H110.312V105.605C110.312 103.87 109.591 103.239 108.442 103.239C107.443 103.239 106.868 103.896 106.747 104.122H106.721V103.401H105.734V109.814H106.812V104.87C107.029 104.605 107.468 104.161 108.121 104.161ZM103.059 109.093H103.085V109.814H104.077V103.401H102.994V108.306C102.781 108.571 102.35 109.015 101.698 109.015C100.975 109.015 100.628 108.584 100.628 107.532V103.401H99.5446V107.61C99.5446 109.346 100.254 109.976 101.389 109.976C102.364 109.976 102.937 109.319 103.059 109.093ZM59.5752 41.4495C59.3295 41.2858 58.792 41.0877 58.1488 41.0877C56.7237 41.0877 55.3325 42.0228 55.3325 44.4421C55.3325 46.7789 56.4193 47.9356 57.9618 47.9356C58.5228 47.9356 58.9672 47.831 59.306 47.7018V45.3761L58.5937 45.2136C58.4758 45.1891 58.4293 45.1546 58.4293 45.0844C58.4293 44.9798 58.5116 44.8395 58.558 44.7337H61.223C61.223 44.7337 61.2344 44.8039 61.2344 44.8629C61.2344 45.0499 61.1295 45.1891 60.8373 45.2715L60.5685 45.3416V47.7842C60.2523 48.0648 59.3883 48.696 57.67 48.696C55.613 48.696 54 47.4224 54 44.5823C54 41.543 56.2562 40.3507 58.1958 40.3507C59.4352 40.3507 60.054 40.7014 60.4398 40.8773C60.475 41.2279 60.5103 41.9516 60.5103 42.0451C60.5103 42.408 60.405 42.6418 60.101 42.6418C60.0075 42.6418 59.914 42.6185 59.8318 42.5951L59.5752 41.4495ZM65.4518 45.1312C65.4753 45.0265 65.5106 44.8273 65.5106 44.6291C65.5106 43.9867 65.2766 43.4367 64.5986 43.4367C63.9089 43.4367 63.5001 43.9867 63.4188 45.1312H65.4518ZM63.4065 45.7502C63.4188 47.1997 64.1076 47.8777 65.113 47.8777C65.861 47.8777 66.2815 47.586 66.5738 47.34C66.6908 47.4335 66.7491 47.6328 66.7491 47.7374C66.7491 48.0291 65.978 48.696 64.6808 48.696C63.2431 48.696 62.1675 47.8777 62.1675 45.8437C62.1675 43.8108 63.3948 42.771 64.7277 42.771C66.0481 42.771 66.7138 43.577 66.7138 44.746C66.7138 45.0499 66.6556 45.4585 66.5738 45.7502H63.4065ZM71.0131 43.5536H69.5876V47.9245L70.3822 48.0759C70.4991 48.1004 70.5456 48.1349 70.5456 48.2284C70.5456 48.3453 70.4639 48.5212 70.429 48.5557H67.6471C67.6471 48.5557 67.6359 48.4856 67.6359 48.45C67.6359 48.2407 67.7758 48.1471 67.998 48.0648L68.3951 47.9245V43.5536H67.5301C67.5301 43.5536 67.5184 43.4835 67.5184 43.4479C67.5184 43.2263 67.6589 43.1094 67.8811 43.0515L68.3951 42.9113V42.7932C68.3951 40.9118 69.5406 40 70.5456 40C71.1301 40 71.3641 40.2571 71.3641 40.6201C71.3641 40.9118 71.1889 41.0754 71.0131 41.1689C70.9083 41.052 70.6039 40.8294 70.2421 40.8294C69.7393 40.8294 69.5641 41.1099 69.5641 41.8002C69.5641 42.1631 69.5876 42.9113 69.5876 42.9113H71.1423L71.0131 43.5536ZM75.3472 41.9638C74.9737 41.9638 74.7049 41.7067 74.7049 41.3326C74.7049 40.9351 74.9737 40.678 75.3472 40.678C75.6982 40.678 75.9673 40.9351 75.9673 41.3326C75.9673 41.7067 75.6982 41.9638 75.3472 41.9638ZM72.7761 45.7279C72.7761 47.2932 73.4071 47.9946 74.2722 47.9946C75.1371 47.9946 75.7804 47.3166 75.7804 45.7502C75.7804 44.1849 75.1371 43.4601 74.2722 43.4601C73.4072 43.4601 72.7761 44.1493 72.7761 45.7279ZM73.2315 41.9638C72.8819 41.9638 72.6009 41.7067 72.6009 41.3326C72.6009 40.9351 72.8819 40.678 73.2315 40.678C73.5942 40.678 73.8634 40.9351 73.8634 41.3326C73.8634 41.7067 73.5942 41.9638 73.2315 41.9638ZM77.0302 45.6801C77.0302 47.7018 75.6159 48.696 74.1908 48.696C72.7296 48.696 71.5259 47.7608 71.5259 45.7981C71.5259 43.8219 72.9284 42.771 74.4127 42.771C75.8739 42.771 77.0302 43.6472 77.0302 45.6801ZM79.6674 43.8453H79.7025C79.9478 43.4479 80.3801 42.771 81.1403 42.771C81.6891 42.771 81.947 43.027 81.947 43.39C81.947 43.6472 81.8296 43.8687 81.7361 43.9867C81.6421 43.9388 81.3503 43.8108 80.9533 43.8108C80.3105 43.8108 79.9835 44.068 79.7378 44.4064V47.9245L80.5788 48.0759C80.6958 48.1004 80.7428 48.1349 80.7428 48.2284C80.7428 48.3453 80.6493 48.5212 80.6258 48.5557H77.7973C77.7973 48.5557 77.786 48.4856 77.786 48.45C77.786 48.2407 77.926 48.1471 78.1483 48.0648L78.5566 47.9245V43.6004L77.7273 43.4713C77.7273 43.4713 77.7156 43.4011 77.7156 43.3544C77.7156 43.1562 77.8678 43.0159 78.1483 42.9925L79.7378 42.84L79.6674 43.8453ZM86.3171 43.8219C86.1419 43.6583 85.8257 43.4713 85.3356 43.4713C84.3884 43.4713 83.6874 44.1493 83.6874 45.6923C83.6874 47.1997 84.3419 47.8076 85.1247 47.8076C85.8031 47.8076 86.1649 47.4925 86.3171 47.3166V43.8219ZM87.4975 47.9011L88.3507 48.018C88.3507 48.018 88.3624 48.0647 88.3624 48.1115C88.3624 48.3219 88.2102 48.4622 87.9297 48.4856L86.3867 48.6259V47.8666H86.3524C86.0949 48.2284 85.6044 48.696 84.6925 48.696C83.5473 48.696 82.4719 47.9601 82.4719 45.9261C82.4719 43.7518 83.9914 42.771 85.4874 42.771C85.8257 42.771 86.1184 42.8289 86.3171 42.8756V40.8294L85.4874 40.7136C85.4874 40.7136 85.4761 40.6312 85.4761 40.5845C85.4761 40.3863 85.6274 40.246 85.908 40.2226L87.4975 40.0701V47.9011ZM92.2546 45.1312C92.2776 45.0265 92.3129 44.8273 92.3129 44.6291C92.3129 43.9867 92.0789 43.4367 91.4014 43.4367C90.7121 43.4367 90.3024 43.9867 90.2207 45.1312H92.2546ZM90.2089 45.7502C90.2207 47.1997 90.9104 47.8777 91.9154 47.8777C92.6634 47.8777 93.0843 47.586 93.3766 47.34C93.4932 47.4335 93.5519 47.6328 93.5519 47.7374C93.5519 48.0291 92.7804 48.696 91.4828 48.696C90.0455 48.696 88.9704 47.8777 88.9704 45.8437C88.9704 43.8108 90.1977 42.771 91.5297 42.771C92.8504 42.771 93.5166 43.577 93.5166 44.746C93.5166 45.0499 93.4584 45.4585 93.3766 45.7502H90.2089ZM96.2855 43.8453H96.3208C96.5661 43.4479 96.9984 42.771 97.7581 42.771C98.3074 42.771 98.5648 43.027 98.5648 43.39C98.5648 43.6472 98.4474 43.8687 98.354 43.9867C98.2604 43.9388 97.9686 43.8108 97.5711 43.8108C96.9288 43.8108 96.6013 44.068 96.3556 44.4064V47.9245L97.1971 48.0759C97.3141 48.1004 97.3607 48.1349 97.3607 48.2284C97.3607 48.3453 97.2671 48.5212 97.2441 48.5557H94.4156C94.4156 48.5557 94.4043 48.4856 94.4043 48.45C94.4043 48.2407 94.5443 48.1471 94.7661 48.0648L95.1749 47.9245V43.6004L94.3456 43.4713C94.3456 43.4713 94.3334 43.4011 94.3334 43.3544C94.3334 43.1562 94.4856 43.0159 94.7661 42.9925L96.3556 42.84L96.2855 43.8453ZM102.884 43.5536H101.283V46.9659C101.283 47.4925 101.446 47.9245 102.031 47.9245C102.487 47.9245 102.861 47.7263 102.954 47.6439C103.012 47.7374 103.059 47.9133 103.059 48.0291C103.059 48.1471 102.65 48.696 101.586 48.696C100.523 48.696 100.102 48.0759 100.102 47.1763V43.5536H99.2259C99.2259 43.5536 99.2136 43.4835 99.2136 43.4479C99.2136 43.2263 99.3542 43.0983 99.5759 43.0515L100.149 42.9113L100.417 41.3326H101.283V42.9113H103.012L102.884 43.5536ZM109.909 43.8219C109.733 43.6583 109.418 43.4713 108.927 43.4713C107.98 43.4713 107.279 44.1493 107.279 45.6923C107.279 47.1997 107.934 47.8076 108.717 47.8076C109.395 47.8076 109.757 47.4925 109.909 47.3166V43.8219ZM111.089 47.9011L111.943 48.018C111.943 48.018 111.955 48.0647 111.955 48.1115C111.955 48.3219 111.803 48.4622 111.522 48.4856L109.98 48.6259V47.8666H109.944C109.687 48.2284 109.196 48.696 108.285 48.696C107.139 48.696 106.064 47.9601 106.064 45.9261C106.064 43.7518 107.583 42.771 109.079 42.771C109.418 42.771 109.71 42.8289 109.909 42.8756V40.8294L109.079 40.7136C109.079 40.7136 109.067 40.6312 109.067 40.5845C109.067 40.3863 109.219 40.246 109.5 40.2226L111.089 40.0701V47.9011ZM117.769 47.9011L118.622 48.018C118.622 48.018 118.634 48.0647 118.634 48.1115C118.634 48.3219 118.482 48.4622 118.201 48.4856L116.658 48.6259V47.8543H116.636C116.449 48.1004 115.934 48.696 114.906 48.696C113.655 48.696 113.07 47.9601 113.07 46.5807V43.6004L112.241 43.4713C112.241 43.4713 112.229 43.4011 112.229 43.3544C112.229 43.1562 112.381 43.0159 112.662 42.9925L114.251 42.84V46.5217C114.251 47.586 114.812 47.831 115.327 47.831C115.922 47.831 116.319 47.5738 116.589 47.2699V43.6004L115.758 43.4713C115.758 43.4713 115.747 43.4011 115.747 43.3544C115.747 43.1562 115.899 43.0159 116.179 42.9925L117.769 42.84V47.9011ZM121.321 43.8453H121.356C121.601 43.4479 122.033 42.771 122.794 42.771C123.342 42.771 123.6 43.027 123.6 43.39C123.6 43.6472 123.483 43.8687 123.389 43.9867C123.296 43.9388 123.004 43.8108 122.606 43.8108C121.964 43.8108 121.637 44.068 121.391 44.4064V47.9245L122.233 48.0759C122.349 48.1004 122.396 48.1349 122.396 48.2284C122.396 48.3453 122.303 48.5212 122.279 48.5557H119.451C119.451 48.5557 119.439 48.4856 119.439 48.45C119.439 48.2407 119.58 48.1471 119.802 48.0648L120.21 47.9245V43.6004L119.381 43.4713C119.381 43.4713 119.368 43.4011 119.368 43.3544C119.368 43.1562 119.521 43.0159 119.802 42.9925L121.391 42.84L121.321 43.8453ZM126.849 43.4713C126.065 43.4713 125.388 44.0324 125.388 45.5632C125.388 47.0361 125.96 47.8888 127.059 47.8888C127.783 47.8888 128.204 47.5148 128.391 47.3289C128.496 47.4335 128.578 47.6205 128.578 47.7263C128.578 48.018 127.935 48.696 126.65 48.696C125.13 48.696 124.149 47.7374 124.149 45.8092C124.149 43.8342 125.469 42.771 127.047 42.771C128.333 42.771 128.66 43.4011 128.66 43.7407C128.66 44.0557 128.507 44.3485 128.064 44.4421C127.889 44.0324 127.62 43.4713 126.849 43.4713ZM131.298 43.6126H131.322C131.555 43.3321 132.116 42.771 133.121 42.771C134.29 42.771 134.956 43.4601 134.956 44.8273V47.9245L135.634 48.0759C135.751 48.1004 135.798 48.1349 135.798 48.2284C135.798 48.3453 135.704 48.5212 135.681 48.5557H133.027C133.027 48.5557 133.016 48.4856 133.016 48.45C133.016 48.2407 133.156 48.1349 133.378 48.0648L133.764 47.9245V44.9675C133.764 43.9745 133.226 43.6705 132.631 43.6705C131.905 43.6705 131.52 43.9867 131.298 44.2083V47.9245L131.952 48.0759C132.069 48.1004 132.116 48.1349 132.116 48.2284C132.116 48.3453 132.034 48.5212 131.999 48.5557H129.346C129.346 48.5557 129.334 48.4856 129.334 48.45C129.334 48.2407 129.474 48.1349 129.697 48.0648L130.106 47.9245V40.8294L129.276 40.7136C129.276 40.7136 129.265 40.6312 129.265 40.5845C129.265 40.3863 129.416 40.246 129.697 40.2226L131.298 40.0701V43.6126ZM137.501 48.7082C137.091 48.7082 136.776 48.4277 136.776 47.9946C136.776 47.5504 137.091 47.2699 137.501 47.2699C137.91 47.2699 138.237 47.5504 138.237 47.9946C138.237 48.4277 137.91 48.7082 137.501 48.7082ZM137.501 44.2083C137.091 44.2083 136.776 43.9277 136.776 43.4946C136.776 43.0515 137.091 42.771 137.501 42.771C137.91 42.771 138.237 43.0515 138.237 43.4946C138.237 43.9277 137.91 44.2083 137.501 44.2083Z" fill="#231F20"/>
</g>
<defs>
<clipPath id="clip0_137_521">
<rect width="282" height="181" fill="white"/>
</clipPath>
</defs>
</svg>
